<svg width="93" height="58" viewBox="0 0 93 58" fill="black" xmlns="http://www.w3.org/2000/svg">
    <path d="M19.8541 56.76C-0.556328 49.6022 -6.65268 24.5095 8.28915 9.15858C14.8527 2.41537 21.6371 0 34.0147 0C42.9013 0 48.1203 1.14245 54.1021 4.39712C58.692 6.89443 64.4661 13.4052 65.8746 17.6717C66.3753 19.1881 67.1154 20.4289 67.5193 20.4289C67.9233 20.4289 72.5866 17.8268 77.8822 14.6464C91.2564 6.61435 91.1145 6.68189 91.9254 7.96121C92.7709 9.29501 92.8238 49.5682 91.9819 50.8934C91.5359 51.5953 88.2279 49.991 80.104 45.1327C73.9111 41.4292 68.4419 38.2469 67.9502 38.0608C67.4585 37.8747 66.4011 39.3181 65.6004 41.2685C63.379 46.6791 57.9077 52.237 51.8811 55.205C46.7646 57.7248 46.3758 57.7891 35.215 57.9622C26.0072 58.1052 23.0236 57.8716 19.8541 56.76H19.8541ZM43.1411 41.5385C44.6119 41.0375 46.9781 39.6219 48.3994 38.3927C50.866 36.2594 51.3402 36.1578 58.8232 36.1578H66.6629V29.0798V22.0018H58.7497C50.9987 22.0018 50.7715 21.9495 47.6574 19.4458C44.593 16.9821 44.1804 16.8801 36.2227 16.6196C25.5943 16.2716 23.1703 16.773 19.9585 19.9838C13.3745 26.5656 15.27 37.1188 23.7257 40.958C27.4881 42.6662 38.8342 43.0054 43.1411 41.5385Z"/>
</svg>
