<svg width="306" height="58" viewBox="0 0 306 58" fill="black" xmlns="http://www.w3.org/2000/svg">
    <path d="M14.5102 56.0624C8.83451 54.0287 6.09369 51.8063 3.58969 47.2071C0.696701 41.8935 0.111084 35.6914 1.91341 29.454C5.81137 15.964 23.3515 10.9759 34.9425 20.0611C36.4302 21.2272 36.373 21.3705 33.0852 24.7195L29.6929 28.1748L26.9917 26.5816C22.8696 24.1503 17.7172 24.9696 14.4046 28.5831C7.59324 36.0131 12.1129 47.2105 21.92 47.2025C24.0654 47.2008 26.5219 46.6013 27.9491 45.7313L30.3577 44.263L33.6527 47.3355C35.465 49.0254 36.9477 50.6216 36.9477 50.8827C36.9477 51.1437 36.3282 51.8468 35.571 52.445C29.8289 56.9806 21.2062 58.4617 14.5102 56.0624ZM120.609 56.6427C113.543 55.175 108.356 51.1178 105.657 44.9478C103.98 41.1128 103.995 31.2434 105.684 27.377C108.958 19.8866 116.124 15.4808 125.058 15.4663C131.507 15.4544 135.468 16.7797 139.275 20.218C143.003 23.5843 144.949 28.5251 145.045 34.8613L145.119 39.7342L129.975 39.9479C121.646 40.0653 114.831 40.4807 114.831 40.8707C114.831 41.2607 115.718 42.6338 116.802 43.9222C120.43 48.2323 129.288 48.8687 134.98 45.2282C136.495 44.2592 136.907 44.4369 139.644 47.2382C142.533 50.1958 142.594 50.3684 141.269 51.8314C137.887 55.5681 127.301 58.0332 120.608 56.6429L120.609 56.6427ZM135.286 30.7962C135.286 29.1141 131.783 25.928 129.026 25.1022C123.854 23.5531 117.856 25.7229 115.585 29.9647C114.806 31.4203 115.158 31.4766 125.031 31.4766C130.671 31.4766 135.286 31.1704 135.286 30.7962ZM232.05 55.3908C228.445 53.8321 224.443 49.9434 222.436 46.0489C220.481 42.2552 219.761 34.5999 220.946 30.2215C225.467 13.5239 249.625 10.5313 258.445 25.5764C261.017 29.9636 261.863 37.5534 260.373 42.8727C259.132 47.3061 254.017 53.2421 249.781 55.1654C245.775 56.9847 236.024 57.1087 232.05 55.3908V55.3908ZM246.593 45.5005C254.601 39.2036 250.538 25.1909 240.704 25.1909C230.817 25.1909 226.763 39.1697 234.814 45.5005C237.794 47.8438 243.613 47.8438 246.593 45.5005ZM40.8812 36.1953V16.5341H45.9948H51.1084V36.1953V55.8563H45.9948H40.8812V36.1953ZM58.9754 36.1953V16.5341H63.6956C68.4012 16.5341 68.4158 16.5401 68.4158 18.861V21.1879L72.2617 18.7979C78.9524 14.6401 86.2027 15.0274 91.6802 19.8352C97.1766 24.6595 97.8742 27.0717 98.1736 42.2902L98.4405 55.8563H93.3311H88.2216L87.9559 43.4698C87.7361 33.23 87.4496 30.7295 86.3023 29.0419C83.5822 25.0403 78.4745 24.0949 74.0721 26.7781C70.002 29.2587 69.2026 32.2209 69.2026 44.8208V55.8563H64.089H58.9754L58.9754 36.1953ZM151.02 36.1578V16.4592L155.904 16.6934C160.355 16.9068 160.837 17.1021 161.333 18.8936C161.632 19.975 161.912 20.4001 161.955 19.8383C162.063 18.437 168.146 15.7862 171.302 15.7651C174.825 15.7414 179.394 17.7234 181.373 20.1334L183.012 22.1293L185.575 19.7361C191.41 14.2871 202.722 14.7183 208.215 20.5992C211.913 24.5587 212.648 27.8866 213.008 42.2904L213.348 55.8565H207.751H202.155V42.9863C202.155 31.1566 202.024 29.9485 200.525 28.0438C198.396 25.3385 193.142 25.1174 190.455 27.6201C187.634 30.2477 187.208 32.4608 187.208 44.5043V55.8565H182.147H177.087L176.837 42.9604C176.613 31.3732 176.428 29.8874 175.014 28.3209C172.698 25.7554 170.113 24.9932 167.098 25.9878C162.337 27.5585 161.672 29.5895 161.374 43.47L161.108 55.8565H156.064H151.019V36.1579L151.02 36.1578ZM267.452 36.1561V16.4557L271.975 16.6917C276.23 16.9135 276.513 17.0532 276.743 19.0407L276.987 21.1537L280.283 18.8459C286.842 14.2533 295.408 15.0515 300.908 20.7677C305.32 25.3532 306 28.3463 306 43.1681V55.8566H300.939H295.879L295.629 42.896C295.385 30.2 295.339 29.8945 293.371 27.9292C289.341 23.9048 281.947 24.89 279.021 29.8413C277.916 31.7121 277.679 34.2064 277.679 43.9847V55.8566H272.565H267.452V36.1562L267.452 36.1561ZM42.1674 10.1856C37.8965 6.82723 40.6253 0.0189209 46.2422 0.0189209C51.6424 0.0189209 54.0514 6.86004 49.8222 10.1856C48.6822 11.0821 46.9598 11.8156 45.9948 11.8156C45.0298 11.8156 43.3074 11.0821 42.1674 10.1856Z"/>
</svg>
