<svg width="46" height="46" viewBox="0 0 46 46" fill="none" xmlns="http://www.w3.org/2000/svg">
    <path fill-rule="evenodd" clip-rule="evenodd" d="M7 35C7 35 5 35 5 33C5 31 7 25 17 25C27 25 29 31 29 33C29 35 27 35 27 35H7ZM17 23C18.5913 23 20.1174 22.3679 21.2426 21.2426C22.3679 20.1174 23 18.5913 23 17C23 15.4087 22.3679 13.8826 21.2426 12.7574C20.1174 11.6321 18.5913 11 17 11C15.4087 11 13.8826 11.6321 12.7574 12.7574C11.6321 13.8826 11 15.4087 11 17C11 18.5913 11.6321 20.1174 12.7574 21.2426C13.8826 22.3679 15.4087 23 17 23V23Z" fill="black"/>
</svg>
