<svg width="48" height="40" viewBox="0 0 48 40" fill="none" xmlns="http://www.w3.org/2000/svg">
    <path d="M15.1003 39.5001C33.2091 39.5001 43.1166 24.4935 43.1166 11.4838C43.1166 11.062 43.1072 10.6307 43.0884 10.2088C45.0158 8.81504 46.679 7.08863 48 5.11072C46.205 5.90932 44.2993 6.43089 42.3478 6.65759C44.4026 5.42594 45.9411 3.49107 46.6781 1.21166C44.7451 2.35724 42.6312 3.16535 40.4269 3.60134C38.9417 2.02324 36.978 0.978355 34.8394 0.628224C32.7008 0.278093 30.5064 0.642223 28.5955 1.66431C26.6846 2.68641 25.1636 4.30953 24.2677 6.28275C23.3718 8.25596 23.1509 10.4694 23.6391 12.5807C19.725 12.3843 15.8959 11.3675 12.4 9.59632C8.90405 7.82511 5.81939 5.339 3.34594 2.29916C2.0888 4.46661 1.70411 7.03141 2.27006 9.4723C2.83601 11.9132 4.31013 14.047 6.39281 15.4401C4.82926 15.3905 3.29995 14.9695 1.93125 14.212V14.3338C1.92985 16.6084 2.7162 18.8133 4.15662 20.5737C5.59704 22.334 7.60265 23.5412 9.8325 23.9901C8.38411 24.3864 6.86396 24.4441 5.38969 24.1588C6.01891 26.115 7.24315 27.8259 8.89154 29.0528C10.5399 30.2797 12.5302 30.9613 14.5847 31.0026C11.0968 33.7423 6.78835 35.2284 2.35313 35.2213C1.56657 35.2201 0.780798 35.1719 0 35.077C4.50571 37.9676 9.74706 39.5029 15.1003 39.5001Z" fill="#343129"/>
</svg>
